<svg width="211" height="38" viewBox="0 0 211 38" fill="none" xmlns="http://www.w3.org/2000/svg">
<path d="M9.45234 17.9766H4.4923V15.1196H9.45234C10.2636 15.1196 10.9205 14.9873 11.4231 14.7228C11.9346 14.4494 12.3093 14.0791 12.5474 13.6117C12.7855 13.1356 12.9045 12.5933 12.9045 11.9848C12.9045 11.394 12.7855 10.8429 12.5474 10.3315C12.3093 9.82006 11.9346 9.40562 11.4231 9.08818C10.9205 8.77074 10.2636 8.61202 9.45234 8.61202H5.68271V25H2.04534V5.7418H9.45234C10.9514 5.7418 12.23 6.01075 13.2881 6.54864C14.3551 7.07771 15.1663 7.814 15.7218 8.75751C16.2862 9.6922 16.5683 10.7592 16.5683 11.9584C16.5683 13.2017 16.2862 14.2731 15.7218 15.1725C15.1663 16.0719 14.3551 16.7641 13.2881 17.2491C12.23 17.7341 10.9514 17.9766 9.45234 17.9766ZM19.4253 5.7418H26.4223C27.8861 5.7418 29.1426 5.96225 30.1919 6.40314C31.2413 6.84404 32.0481 7.49656 32.6124 8.36071C33.1768 9.22486 33.459 10.2874 33.459 11.5484C33.459 12.5448 33.2826 13.4089 32.9299 14.1408C32.5772 14.8727 32.079 15.4855 31.4353 15.9793C30.8004 16.4731 30.0508 16.8611 29.1867 17.1433L28.0492 17.7253H21.8723L21.8458 14.8551H26.462C27.2115 14.8551 27.8332 14.7228 28.327 14.4583C28.8208 14.1937 29.1911 13.8278 29.438 13.3604C29.6937 12.8931 29.8216 12.3596 29.8216 11.76C29.8216 11.1163 29.6981 10.5608 29.4512 10.0934C29.2043 9.61725 28.8296 9.25131 28.327 8.99559C27.8243 8.73987 27.1895 8.61202 26.4223 8.61202H23.0627V25H19.4253V5.7418ZM30.2977 25L25.8403 16.3761L29.6893 16.3629L34.1997 24.8148V25H30.2977ZM44.3049 8.66492L38.8158 25H34.9668L42.1622 5.7418H44.6224L44.3049 8.66492ZM48.8946 25L43.379 8.66492L43.0484 5.7418H45.5218L52.7568 25H48.8946ZM48.6433 17.8443V20.7145H38.3132V17.8443H48.6433ZM62.1214 16.4158H57.201L57.1746 13.8498H61.3939C62.117 13.8498 62.721 13.7484 63.206 13.5456C63.691 13.3428 64.0569 13.0474 64.3038 12.6594C64.5595 12.2714 64.6874 11.7997 64.6874 11.2441C64.6874 10.6269 64.5683 10.1243 64.3303 9.73629C64.101 9.34831 63.7395 9.06614 63.2457 8.88978C62.7519 8.7046 62.1258 8.61202 61.3675 8.61202H58.3782V25H54.7408V5.7418H61.3675C62.4609 5.7418 63.4352 5.84762 64.2906 6.05925C65.1547 6.26206 65.8866 6.5795 66.4862 7.01158C67.0858 7.44365 67.54 7.98595 67.8486 8.63847C68.166 9.29099 68.3247 10.067 68.3247 10.9664C68.3247 11.76 68.1396 12.4919 67.7692 13.162C67.4077 13.8234 66.8478 14.3613 66.0894 14.7757C65.3399 15.1901 64.3876 15.4282 63.2324 15.4899L62.1214 16.4158ZM61.9627 25H56.1297L57.6507 22.143H61.9627C62.6857 22.143 63.2809 22.024 63.7483 21.7859C64.2244 21.5478 64.5772 21.2215 64.8064 20.8071C65.0445 20.3839 65.1635 19.8989 65.1635 19.3522C65.1635 18.7525 65.0577 18.2323 64.8461 17.7914C64.6433 17.3505 64.317 17.011 63.8673 16.7729C63.4264 16.5349 62.8445 16.4158 62.1214 16.4158H58.3385L58.365 13.8498H63.1795L64.0128 14.8418C65.1239 14.8506 66.0277 15.0711 66.7243 15.5032C67.4297 15.9352 67.95 16.4908 68.2851 17.1697C68.6201 17.8487 68.7877 18.5806 68.7877 19.3654C68.7877 20.5999 68.5187 21.636 67.9809 22.4737C67.4518 23.3114 66.6758 23.9419 65.6529 24.3651C64.6389 24.7884 63.4088 25 61.9627 25ZM84.7127 13.6911V16.5481H74.581V13.6911H84.7127ZM75.573 5.7418V25H71.9357V5.7418H75.573ZM87.411 5.7418V25H83.7736V5.7418H87.411ZM101.828 5.7418H105.466V18.5321C105.466 20.0047 105.148 21.2436 104.513 22.2488C103.878 23.2452 103.014 23.9992 101.921 24.5106C100.827 25.0132 99.584 25.2645 98.1908 25.2645C96.78 25.2645 95.5234 25.0132 94.4212 24.5106C93.319 23.9992 92.4548 23.2452 91.8287 22.2488C91.2027 21.2436 90.8896 20.0047 90.8896 18.5321V5.7418H94.527V18.5321C94.527 19.4315 94.6769 20.1678 94.9767 20.741C95.2765 21.3053 95.6998 21.7242 96.2465 21.9975C96.7932 22.2709 97.4413 22.4076 98.1908 22.4076C98.9492 22.4076 99.5973 22.2709 100.135 21.9975C100.682 21.7242 101.101 21.3053 101.392 20.741C101.683 20.1678 101.828 19.4315 101.828 18.5321V5.7418Z" fill="#333333"/>
<path d="M125.742 20.0003C125.742 19.6299 125.685 19.2993 125.57 19.0083C125.464 18.7085 125.266 18.4395 124.975 18.2014C124.693 17.9545 124.292 17.7165 123.771 17.4872C123.26 17.2491 122.599 17.0022 121.787 16.7465C120.888 16.4643 120.05 16.1469 119.274 15.7942C118.498 15.4414 117.815 15.0314 117.224 14.5641C116.642 14.0967 116.188 13.5588 115.862 12.9504C115.536 12.3332 115.372 11.6189 115.372 10.8077C115.372 10.0141 115.54 9.29099 115.875 8.63847C116.219 7.98595 116.704 7.42601 117.33 6.95867C117.956 6.4825 118.692 6.11656 119.539 5.86085C120.394 5.60513 121.338 5.47727 122.369 5.47727C123.798 5.47727 125.032 5.7374 126.073 6.25765C127.122 6.7779 127.933 7.48333 128.507 8.37393C129.08 9.26454 129.366 10.2654 129.366 11.3764H125.742C125.742 10.7768 125.614 10.2477 125.359 9.7892C125.112 9.33067 124.733 8.96914 124.221 8.7046C123.719 8.44007 123.084 8.3078 122.316 8.3078C121.576 8.3078 120.959 8.41802 120.465 8.63847C119.98 8.85892 119.614 9.15872 119.367 9.53789C119.129 9.91706 119.01 10.3403 119.01 10.8077C119.01 11.1604 119.094 11.4778 119.261 11.76C119.429 12.0333 119.68 12.2935 120.015 12.5404C120.35 12.7785 120.765 13.0033 121.258 13.2149C121.761 13.4177 122.343 13.6206 123.004 13.8234C124.062 14.1408 124.988 14.4935 125.782 14.8815C126.584 15.2695 127.25 15.7104 127.779 16.2042C128.317 16.698 128.718 17.2535 128.983 17.8708C129.256 18.488 129.393 19.189 129.393 19.9738C129.393 20.8027 129.23 21.5434 128.903 22.1959C128.577 22.8484 128.11 23.404 127.501 23.8625C126.893 24.321 126.161 24.6693 125.306 24.9074C124.459 25.1455 123.511 25.2645 122.462 25.2645C121.527 25.2645 120.601 25.1411 119.684 24.8942C118.776 24.6385 117.952 24.2593 117.211 23.7567C116.47 23.2452 115.879 22.6015 115.439 21.8256C114.998 21.0408 114.777 20.1237 114.777 19.0744H118.428C118.428 19.6828 118.525 20.2031 118.719 20.6352C118.922 21.0584 119.204 21.4067 119.565 21.6801C119.936 21.9446 120.368 22.1386 120.862 22.2621C121.355 22.3855 121.889 22.4472 122.462 22.4472C123.203 22.4472 123.811 22.3458 124.287 22.143C124.772 21.9314 125.134 21.6404 125.372 21.27C125.619 20.8997 125.742 20.4764 125.742 20.0003ZM140.464 5.7418V25H136.839V5.7418H140.464ZM146.442 5.7418V8.61202H130.927V5.7418H146.442ZM161.626 22.143V25H151.389V22.143H161.626ZM152.5 5.7418V25H148.863V5.7418H152.5ZM160.291 13.6911V16.482H151.389V13.6911H160.291ZM161.587 5.7418V8.61202H151.389V5.7418H161.587ZM176.917 22.143V25H166.679V22.143H176.917ZM167.79 5.7418V25H164.153V5.7418H167.79ZM175.581 13.6911V16.482H166.679V13.6911H175.581ZM176.877 5.7418V8.61202H166.679V5.7418H176.877ZM191.665 22.143V25H181.982V22.143H191.665ZM183.08 5.7418V25H179.443V5.7418H183.08ZM204.177 20.0003C204.177 19.6299 204.12 19.2993 204.005 19.0083C203.899 18.7085 203.701 18.4395 203.41 18.2014C203.128 17.9545 202.726 17.7165 202.206 17.4872C201.695 17.2491 201.033 17.0022 200.222 16.7465C199.323 16.4643 198.485 16.1469 197.709 15.7942C196.933 15.4414 196.25 15.0314 195.659 14.5641C195.077 14.0967 194.623 13.5588 194.297 12.9504C193.97 12.3332 193.807 11.6189 193.807 10.8077C193.807 10.0141 193.975 9.29099 194.31 8.63847C194.654 7.98595 195.139 7.42601 195.765 6.95867C196.391 6.4825 197.127 6.11656 197.974 5.86085C198.829 5.60513 199.773 5.47727 200.804 5.47727C202.233 5.47727 203.467 5.7374 204.508 6.25765C205.557 6.7779 206.368 7.48333 206.941 8.37393C207.515 9.26454 207.801 10.2654 207.801 11.3764H204.177C204.177 10.7768 204.049 10.2477 203.793 9.7892C203.547 9.33067 203.167 8.96914 202.656 8.7046C202.153 8.44007 201.518 8.3078 200.751 8.3078C200.011 8.3078 199.393 8.41802 198.9 8.63847C198.415 8.85892 198.049 9.15872 197.802 9.53789C197.564 9.91706 197.445 10.3403 197.445 10.8077C197.445 11.1604 197.528 11.4778 197.696 11.76C197.863 12.0333 198.115 12.2935 198.45 12.5404C198.785 12.7785 199.199 13.0033 199.693 13.2149C200.196 13.4177 200.778 13.6206 201.439 13.8234C202.497 14.1408 203.423 14.4935 204.217 14.8815C205.019 15.2695 205.685 15.7104 206.214 16.2042C206.752 16.698 207.153 17.2535 207.418 17.8708C207.691 18.488 207.828 19.189 207.828 19.9738C207.828 20.8027 207.664 21.5434 207.338 22.1959C207.012 22.8484 206.545 23.404 205.936 23.8625C205.328 24.321 204.596 24.6693 203.741 24.9074C202.894 25.1455 201.946 25.2645 200.897 25.2645C199.962 25.2645 199.036 25.1411 198.119 24.8942C197.211 24.6385 196.386 24.2593 195.646 23.7567C194.905 23.2452 194.314 22.6015 193.873 21.8256C193.432 21.0408 193.212 20.1237 193.212 19.0744H196.863C196.863 19.6828 196.96 20.2031 197.154 20.6352C197.356 21.0584 197.639 21.4067 198 21.6801C198.37 21.9446 198.803 22.1386 199.296 22.2621C199.79 22.3855 200.324 22.4472 200.897 22.4472C201.637 22.4472 202.246 22.3458 202.722 22.143C203.207 21.9314 203.569 21.6404 203.807 21.27C204.054 20.8997 204.177 20.4764 204.177 20.0003Z" fill="#A02625"/>
<path d="M159.964 28.7373H161.06V34.0982L160.952 35.0861H159.964V28.7373ZM163.937 32.8045V32.8913C163.937 33.2247 163.899 33.5306 163.825 33.8089C163.753 34.0872 163.645 34.3283 163.498 34.5322C163.352 34.7334 163.171 34.8905 162.953 35.0034C162.738 35.1137 162.486 35.1688 162.196 35.1688C161.921 35.1688 161.681 35.1151 161.477 35.0076C161.276 34.9001 161.107 34.7486 160.969 34.5529C160.831 34.3545 160.721 34.1217 160.638 33.8544C160.556 33.5843 160.494 33.2895 160.452 32.9698V32.7342C160.494 32.4118 160.556 32.117 160.638 31.8497C160.721 31.5824 160.831 31.3496 160.969 31.1511C161.107 30.9527 161.276 30.7998 161.477 30.6923C161.678 30.5849 161.915 30.5311 162.188 30.5311C162.48 30.5311 162.735 30.5876 162.953 30.7006C163.173 30.8108 163.355 30.9679 163.498 31.1718C163.645 31.373 163.753 31.6127 163.825 31.891C163.899 32.1666 163.937 32.4711 163.937 32.8045ZM162.841 32.8913V32.8045C162.841 32.6144 162.826 32.4352 162.796 32.2672C162.766 32.0963 162.716 31.9461 162.647 31.8166C162.578 31.6871 162.484 31.5852 162.366 31.5108C162.247 31.4364 162.099 31.3992 161.92 31.3992C161.749 31.3992 161.603 31.4281 161.481 31.486C161.363 31.5438 161.264 31.6237 161.184 31.7257C161.107 31.8276 161.046 31.9475 161.002 32.0853C160.961 32.2231 160.933 32.3719 160.919 32.5317V33.1765C160.939 33.3887 160.984 33.5802 161.056 33.751C161.127 33.9191 161.233 34.0528 161.374 34.152C161.517 34.2512 161.702 34.3008 161.928 34.3008C162.104 34.3008 162.252 34.2663 162.37 34.1974C162.489 34.1258 162.582 34.0266 162.651 33.8998C162.72 33.7703 162.768 33.6201 162.796 33.4493C162.826 33.2785 162.841 33.0925 162.841 32.8913ZM167.392 34.0238V30.6138H168.492V35.0861H167.458L167.392 34.0238ZM167.533 33.098L167.872 33.0897C167.872 33.3901 167.839 33.667 167.772 33.9205C167.706 34.174 167.603 34.3945 167.462 34.5818C167.325 34.7665 167.15 34.9111 166.937 35.0158C166.725 35.1178 166.475 35.1688 166.185 35.1688C165.965 35.1688 165.764 35.1385 165.582 35.0779C165.4 35.0145 165.243 34.9166 165.11 34.7844C164.981 34.6494 164.88 34.4771 164.809 34.2677C164.737 34.0555 164.701 33.8006 164.701 33.503V30.6138H165.793V33.5113C165.793 33.6601 165.809 33.7841 165.842 33.8833C165.878 33.9825 165.926 34.0638 165.987 34.1272C166.05 34.1878 166.123 34.2319 166.206 34.2594C166.291 34.2842 166.382 34.2966 166.479 34.2966C166.743 34.2966 166.951 34.2443 167.103 34.1396C167.257 34.0321 167.367 33.8888 167.433 33.7097C167.5 33.5278 167.533 33.3239 167.533 33.098ZM170.616 30.6138V35.0861H169.521V30.6138H170.616ZM169.446 29.4441C169.446 29.2815 169.502 29.1465 169.612 29.039C169.725 28.9315 169.876 28.8778 170.066 28.8778C170.257 28.8778 170.407 28.9315 170.517 29.039C170.63 29.1465 170.686 29.2815 170.686 29.4441C170.686 29.6039 170.63 29.7375 170.517 29.845C170.407 29.9525 170.257 30.0062 170.066 30.0062C169.876 30.0062 169.725 29.9525 169.612 29.845C169.502 29.7375 169.446 29.6039 169.446 29.4441ZM172.815 28.7373V35.0861H171.72V28.7373H172.815ZM176.539 34.1354V28.7373H177.639V35.0861H176.647L176.539 34.1354ZM173.667 32.9037V32.8169C173.667 32.4752 173.705 32.1652 173.782 31.8869C173.862 31.6058 173.978 31.3647 174.13 31.1635C174.281 30.9624 174.464 30.8067 174.679 30.6965C174.897 30.5863 175.144 30.5311 175.419 30.5311C175.686 30.5311 175.919 30.5849 176.118 30.6923C176.319 30.7998 176.49 30.9527 176.63 31.1511C176.773 31.3496 176.888 31.5852 176.973 31.858C177.059 32.128 177.121 32.4256 177.159 32.7508V32.9864C177.121 33.3033 177.059 33.594 176.973 33.8585C176.888 34.123 176.773 34.3545 176.63 34.5529C176.49 34.7486 176.319 34.9001 176.118 35.0076C175.917 35.1151 175.681 35.1688 175.411 35.1688C175.138 35.1688 174.893 35.1123 174.675 34.9993C174.46 34.8863 174.277 34.7279 174.125 34.524C173.977 34.3201 173.862 34.0803 173.782 33.8048C173.705 33.5292 173.667 33.2289 173.667 32.9037ZM174.762 32.8169V32.9037C174.762 33.0966 174.778 33.2771 174.812 33.4452C174.845 33.6133 174.898 33.7621 174.973 33.8916C175.047 34.0183 175.142 34.1175 175.258 34.1892C175.376 34.2608 175.52 34.2966 175.688 34.2966C175.903 34.2966 176.079 34.2498 176.217 34.1561C176.357 34.0597 176.466 33.9288 176.543 33.7634C176.621 33.5953 176.67 33.4066 176.692 33.1972V32.5482C176.681 32.3829 176.652 32.23 176.605 32.0894C176.561 31.9489 176.498 31.8276 176.415 31.7257C176.335 31.6237 176.236 31.5438 176.118 31.486C175.999 31.4281 175.859 31.3992 175.696 31.3992C175.528 31.3992 175.385 31.4364 175.266 31.5108C175.148 31.5824 175.051 31.683 174.977 31.8125C174.902 31.942 174.847 32.0922 174.812 32.263C174.778 32.4339 174.762 32.6185 174.762 32.8169ZM179.784 30.6138V35.0861H178.689V30.6138H179.784ZM178.614 29.4441C178.614 29.2815 178.669 29.1465 178.78 29.039C178.893 28.9315 179.044 28.8778 179.234 28.8778C179.424 28.8778 179.575 28.9315 179.685 29.039C179.798 29.1465 179.854 29.2815 179.854 29.4441C179.854 29.6039 179.798 29.7375 179.685 29.845C179.575 29.9525 179.424 30.0062 179.234 30.0062C179.044 30.0062 178.893 29.9525 178.78 29.845C178.669 29.7375 178.614 29.6039 178.614 29.4441ZM181.896 31.5686V35.0861H180.805V30.6138H181.83L181.896 31.5686ZM181.723 32.6888H181.4C181.403 32.3636 181.447 32.0688 181.532 31.8042C181.618 31.5397 181.738 31.3124 181.892 31.1222C182.049 30.9321 182.235 30.786 182.45 30.6841C182.665 30.5821 182.905 30.5311 183.169 30.5311C183.384 30.5311 183.578 30.5615 183.752 30.6221C183.926 30.6827 184.074 30.7791 184.198 30.9114C184.325 31.0437 184.422 31.2173 184.488 31.4322C184.557 31.6444 184.591 31.9062 184.591 32.2176V35.0861H183.492V32.2093C183.492 32.0054 183.461 31.8442 183.401 31.7257C183.343 31.6072 183.257 31.5232 183.144 31.4736C183.034 31.424 182.898 31.3992 182.735 31.3992C182.567 31.3992 182.42 31.4336 182.293 31.5025C182.169 31.5686 182.064 31.6609 181.979 31.7794C181.896 31.8979 181.833 32.0343 181.789 32.1886C181.745 32.3429 181.723 32.5096 181.723 32.6888ZM188.398 30.6138H189.39V34.9497C189.39 35.3548 189.302 35.6979 189.125 35.9789C188.952 36.2627 188.708 36.4777 188.394 36.6237C188.08 36.7725 187.715 36.8469 187.298 36.8469C187.119 36.8469 186.925 36.8221 186.716 36.7725C186.509 36.7229 186.309 36.6444 186.116 36.5369C185.926 36.4322 185.768 36.2958 185.641 36.1277L186.133 35.4829C186.282 35.6565 186.45 35.7874 186.637 35.8756C186.824 35.9665 187.027 36.012 187.245 36.012C187.465 36.012 187.653 35.9707 187.807 35.888C187.964 35.8081 188.084 35.6896 188.166 35.5325C188.252 35.3782 188.295 35.1881 188.295 34.9621V31.6348L188.398 30.6138ZM185.376 32.9037V32.8169C185.376 32.4752 185.418 32.1652 185.5 31.8869C185.583 31.6058 185.702 31.3647 185.856 31.1635C186.013 30.9624 186.202 30.8067 186.422 30.6965C186.645 30.5863 186.896 30.5311 187.174 30.5311C187.469 30.5311 187.717 30.5849 187.918 30.6923C188.122 30.7998 188.29 30.9527 188.423 31.1511C188.558 31.3496 188.662 31.5852 188.737 31.858C188.814 32.128 188.873 32.4256 188.915 32.7508V32.9864C188.876 33.3033 188.814 33.594 188.729 33.8585C188.646 34.123 188.536 34.3545 188.398 34.5529C188.26 34.7486 188.089 34.9001 187.885 35.0076C187.681 35.1151 187.442 35.1688 187.166 35.1688C186.891 35.1688 186.643 35.1123 186.422 34.9993C186.202 34.8863 186.013 34.7279 185.856 34.524C185.702 34.3201 185.583 34.0803 185.5 33.8048C185.418 33.5292 185.376 33.2289 185.376 32.9037ZM186.468 32.8169V32.9037C186.468 33.0966 186.487 33.2771 186.525 33.4452C186.564 33.6133 186.623 33.7621 186.703 33.8916C186.783 34.0183 186.884 34.1175 187.005 34.1892C187.126 34.2608 187.271 34.2966 187.439 34.2966C187.665 34.2966 187.85 34.2498 187.993 34.1561C188.139 34.0597 188.249 33.9288 188.324 33.7634C188.401 33.5953 188.45 33.4066 188.472 33.1972V32.5482C188.459 32.3829 188.428 32.23 188.381 32.0894C188.337 31.9489 188.275 31.8276 188.195 31.7257C188.115 31.6237 188.014 31.5438 187.89 31.486C187.766 31.4281 187.618 31.3992 187.447 31.3992C187.282 31.3992 187.137 31.4364 187.013 31.5108C186.889 31.5824 186.787 31.683 186.707 31.8125C186.627 31.942 186.567 32.0922 186.525 32.263C186.487 32.4339 186.468 32.6185 186.468 32.8169ZM194.598 30.6138V31.3992H192.035V30.6138H194.598ZM192.721 29.5143H193.817V33.7965C193.817 33.9288 193.835 34.0307 193.87 34.1024C193.906 34.174 193.96 34.2222 194.032 34.247C194.103 34.2718 194.189 34.2842 194.288 34.2842C194.36 34.2842 194.426 34.2801 194.486 34.2718C194.547 34.2636 194.598 34.2553 194.639 34.247L194.643 35.0654C194.552 35.0958 194.449 35.1206 194.333 35.1399C194.22 35.1591 194.092 35.1688 193.949 35.1688C193.704 35.1688 193.489 35.1275 193.304 35.0448C193.12 34.9594 192.976 34.823 192.874 34.6356C192.772 34.4454 192.721 34.1947 192.721 33.8833V29.5143ZM196.417 31.5273V35.0861H195.325V30.6138H196.359L196.417 31.5273ZM197.777 30.5849L197.76 31.6017C197.699 31.5907 197.63 31.5824 197.553 31.5769C197.479 31.5714 197.409 31.5686 197.343 31.5686C197.174 31.5686 197.027 31.592 196.9 31.6389C196.773 31.683 196.667 31.7477 196.582 31.8332C196.499 31.9186 196.436 32.0233 196.392 32.1473C196.348 32.2685 196.323 32.4063 196.317 32.5606L196.082 32.5317C196.082 32.2479 196.111 31.9847 196.169 31.7422C196.227 31.4997 196.311 31.2875 196.421 31.1057C196.531 30.9238 196.669 30.7833 196.834 30.6841C197.002 30.5821 197.195 30.5311 197.413 30.5311C197.473 30.5311 197.538 30.5367 197.607 30.5477C197.679 30.5559 197.735 30.5683 197.777 30.5849ZM201.038 34.0238V30.6138H202.137V35.0861H201.104L201.038 34.0238ZM201.178 33.098L201.517 33.0897C201.517 33.3901 201.484 33.667 201.418 33.9205C201.352 34.174 201.249 34.3945 201.108 34.5818C200.97 34.7665 200.795 34.9111 200.583 35.0158C200.371 35.1178 200.12 35.1688 199.831 35.1688C199.61 35.1688 199.409 35.1385 199.227 35.0779C199.045 35.0145 198.888 34.9166 198.756 34.7844C198.627 34.6494 198.526 34.4771 198.454 34.2677C198.383 34.0555 198.347 33.8006 198.347 33.503V30.6138H199.438V33.5113C199.438 33.6601 199.455 33.7841 199.488 33.8833C199.524 33.9825 199.572 34.0638 199.632 34.1272C199.696 34.1878 199.769 34.2319 199.851 34.2594C199.937 34.2842 200.028 34.2966 200.124 34.2966C200.389 34.2966 200.597 34.2443 200.748 34.1396C200.903 34.0321 201.013 33.8888 201.079 33.7097C201.145 33.5278 201.178 33.3239 201.178 33.098ZM205.564 33.8626C205.564 33.7689 205.539 33.6849 205.489 33.6105C205.44 33.5361 205.346 33.4686 205.208 33.408C205.073 33.3446 204.875 33.2853 204.613 33.2302C204.382 33.1806 204.168 33.1186 203.972 33.0442C203.777 32.9698 203.609 32.8803 203.468 32.7756C203.328 32.6681 203.217 32.5427 203.138 32.3994C203.06 32.2534 203.022 32.0853 203.022 31.8952C203.022 31.7105 203.062 31.5369 203.142 31.3744C203.222 31.209 203.337 31.0643 203.489 30.9403C203.64 30.8136 203.825 30.7144 204.043 30.6427C204.26 30.5683 204.506 30.5311 204.778 30.5311C205.159 30.5311 205.485 30.5931 205.758 30.7171C206.034 30.8411 206.244 31.012 206.39 31.2297C206.537 31.4446 206.61 31.6871 206.61 31.9572H205.518C205.518 31.8387 205.491 31.7312 205.436 31.6348C205.383 31.5383 205.302 31.4612 205.192 31.4033C205.082 31.3427 204.942 31.3124 204.774 31.3124C204.623 31.3124 204.495 31.3372 204.39 31.3868C204.288 31.4364 204.211 31.5011 204.158 31.581C204.106 31.6609 204.08 31.7491 204.08 31.8456C204.08 31.9172 204.094 31.982 204.121 32.0398C204.152 32.0949 204.2 32.1459 204.266 32.1928C204.332 32.2396 204.422 32.2823 204.535 32.3209C204.65 32.3595 204.792 32.3967 204.96 32.4325C205.294 32.4986 205.584 32.5868 205.832 32.697C206.083 32.8045 206.279 32.9478 206.419 33.1269C206.56 33.306 206.63 33.5347 206.63 33.813C206.63 34.0114 206.587 34.1933 206.502 34.3586C206.417 34.5212 206.293 34.6631 206.13 34.7844C205.967 34.9056 205.773 35.0007 205.547 35.0696C205.321 35.1357 205.066 35.1688 204.783 35.1688C204.372 35.1688 204.025 35.0958 203.741 34.9497C203.457 34.8009 203.242 34.6135 203.096 34.3876C202.95 34.1589 202.877 33.9219 202.877 33.6766H203.923C203.931 33.8502 203.978 33.9894 204.063 34.0941C204.149 34.1988 204.256 34.2746 204.386 34.3214C204.518 34.3655 204.657 34.3876 204.803 34.3876C204.969 34.3876 205.108 34.3655 205.221 34.3214C205.334 34.2746 205.419 34.2126 205.477 34.1354C205.535 34.0555 205.564 33.9646 205.564 33.8626ZM209.577 30.6138V31.3992H207.015V30.6138H209.577ZM207.701 29.5143H208.796V33.7965C208.796 33.9288 208.814 34.0307 208.85 34.1024C208.886 34.174 208.939 34.2222 209.011 34.247C209.083 34.2718 209.168 34.2842 209.267 34.2842C209.339 34.2842 209.405 34.2801 209.466 34.2718C209.526 34.2636 209.577 34.2553 209.619 34.247L209.623 35.0654C209.532 35.0958 209.428 35.1206 209.313 35.1399C209.2 35.1591 209.072 35.1688 208.928 35.1688C208.683 35.1688 208.468 35.1275 208.284 35.0448C208.099 34.9594 207.956 34.823 207.854 34.6356C207.752 34.4454 207.701 34.1947 207.701 33.8833V29.5143Z" fill="#B2B2B2"/>
</svg>
